# xmcd CD database file
#
# Track frame offsets:
#	150
#	6600
#	24600
#	48300
#	61500
#	81150
#	93750
#	111150
#	120600
#	137700
#	153750
#	168300
#	180300
#	204300
#	222900
#
# Disc length: 3230 seconds
#
# Revision: 0
# Processed by: cddbd v1.5.1PL2 Copyright (c) Steve Scherf et al.
# Submitted via: CDex 1.51
#
DISCID=ba0c9c0f
DTITLE=Mr. Jazz and Soulmatik - Mr. Jazz
DYEAR=2006
DGENRE=Jazz
TTITLE0=Intro
TTITLE1=My Life
TTITLE2=One of a Kind
TTITLE3=The One
TTITLE4=Can't Get Enough
TTITLE5=November (feat. 3rd and C-Bone)
TTITLE6=Hard Times
TTITLE7=Midtro
TTITLE8=Heaven
TTITLE9=What I've Been Missing
TTITLE10=Really Lovin' You
TTITLE11=Her Smile
TTITLE12=N. I. T. U.
TTITLE13=Melodik
TTITLE14=The Prayer
EXTD=YEAR: 2006
EXTT0=
EXTT1=
EXTT2=
EXTT3=
EXTT4=
EXTT5=
EXTT6=
EXTT7=
EXTT8=
EXTT9=
EXTT10=
EXTT11=
EXTT12=
EXTT13=
EXTT14=
PLAYORDER=
